<svg xmlns="http://www.w3.org/2000/svg" width="54.7" height="60.95" viewBox="0 0 54.7 60.95">
  <g id="book" transform="translate(-4.6 -1.8)">
    <circle id="Elipse_236" data-name="Elipse 236" cx="0.9" cy="0.9" r="0.9" transform="translate(56.7 38.6)" fill="none" stroke="#f16723" stroke-linecap="round" stroke-linejoin="round" stroke-miterlimit="10" stroke-width="1"/>
    <circle id="Elipse_237" data-name="Elipse 237" cx="0.3" cy="0.3" r="0.3" transform="translate(7.4 50.3)" fill="#231f20"/>
    <circle id="Elipse_238" data-name="Elipse 238" cx="0.3" cy="0.3" r="0.3" transform="translate(5.8 19.9)" fill="#231f20"/>
    <circle id="Elipse_239" data-name="Elipse 239" cx="0.3" cy="0.3" r="0.3" transform="translate(58 15.9)" fill="#231f20"/>
    <circle id="Elipse_240" data-name="Elipse 240" cx="0.3" cy="0.3" r="0.3" transform="translate(22.2 2)" fill="#231f20"/>
    <circle id="Elipse_241" data-name="Elipse 241" cx="0.3" cy="0.3" r="0.3" transform="translate(56 34.9)" fill="#231f20"/>
    <circle id="Elipse_242" data-name="Elipse 242" cx="0.3" cy="0.3" r="0.3" transform="translate(58.7 48)" fill="#231f20"/>
    <circle id="Elipse_243" data-name="Elipse 243" cx="1.2" cy="1.2" r="1.2" transform="translate(8.9 3.8)" fill="none" stroke="#fbd108" stroke-linecap="round" stroke-linejoin="round" stroke-miterlimit="10" stroke-width="1"/>
    <path id="Trazado_2901" data-name="Trazado 2901" d="M5.1,42.4h2m-1,.9V41.4" fill="none" stroke="#f16723" stroke-linecap="round" stroke-linejoin="round" stroke-miterlimit="10" stroke-width="1"/>
    <circle id="Elipse_244" data-name="Elipse 244" cx="0.4" cy="0.4" r="0.4" transform="translate(56.3 12.1)" fill="#231f20"/>
    <path id="Trazado_2902" data-name="Trazado 2902" d="M55.3,53.1h2m-1,1v-2" fill="none" stroke="#4d9ad4" stroke-linecap="round" stroke-linejoin="round" stroke-miterlimit="10" stroke-width="1"/>
    <path id="Trazado_2903" data-name="Trazado 2903" d="M52.9,16.9l-.3-.2V6.7H17a5.121,5.121,0,0,0-5.1,5.1V57.7A4.055,4.055,0,0,0,16,61.8H49.1a4.055,4.055,0,0,0,4.1-4.1V17l-.3-.1Z" fill="#fff"/>
    <path id="Trazado_2904" data-name="Trazado 2904" d="M53,16.9l-.3-.2V6.7H21.9c-2.5,0-4.4,2.3-4.4,5.1V57.7A3.835,3.835,0,0,0,21,61.8H49.6a3.835,3.835,0,0,0,3.5-4.1V17Z" fill="#3768a4"/>
    <path id="Trazado_2905" data-name="Trazado 2905" d="M49.4,16.9l-.3-.2V6.7H19c-2.4,0-4.3,2.3-4.3,5.1V57.7c0,2.3,1.5,4.1,3.5,4.1h28a3.835,3.835,0,0,0,3.5-4.1V17Z" fill="#4d9ad4"/>
    <path id="Trazado_2906" data-name="Trazado 2906" d="M52.6,17V10.9a1.793,1.793,0,0,0-1.8-1.8H17.2A4.225,4.225,0,0,0,13,13.3v1.8A6.137,6.137,0,0,0,17.6,17C20.8,17.1,52.6,17,52.6,17Z" fill="#fff"/>
    <path id="Trazado_2907" data-name="Trazado 2907" d="M16.1,48.3v4.6" fill="none" stroke="#fff" stroke-linecap="round" stroke-miterlimit="10" stroke-width="1.5"/>
    <path id="Trazado_2908" data-name="Trazado 2908" d="M11.9,23.7V12.5m0,16.1v-3m41.3,16V57.9A4.055,4.055,0,0,1,49.1,62H16a4.055,4.055,0,0,1-4.1-4.1V30.5M53.2,17.1V39.5m0-22.4H17A5.1,5.1,0,1,1,17,6.9H52.6v10" fill="none" stroke="#231f20" stroke-linecap="round" stroke-linejoin="round" stroke-miterlimit="10" stroke-width="1.5"/>
    <path id="Trazado_2909" data-name="Trazado 2909" d="M52.6,17.1V11a1.793,1.793,0,0,0-1.8-1.8H17.2A4.225,4.225,0,0,0,13,13.4v1.8" fill="none" stroke="#231f20" stroke-linecap="round" stroke-linejoin="round" stroke-miterlimit="10" stroke-width="1.5"/>
    <path id="Trazado_2910" data-name="Trazado 2910" d="M19.5,19.6A3.372,3.372,0,0,0,16.1,23m0,1.8v.7" fill="none" stroke="#fff" stroke-linecap="round" stroke-miterlimit="10" stroke-width="1.5"/>
    <path id="Trazado_2911" data-name="Trazado 2911" d="M37.7,34.4H26.6a2.22,2.22,0,0,1-2.2-2.2V27.4a2.22,2.22,0,0,1,2.2-2.2H37.7a2.22,2.22,0,0,1,2.2,2.2v4.8A2.1,2.1,0,0,1,37.7,34.4Z" fill="#fff"/>
    <path id="Trazado_2912" data-name="Trazado 2912" d="M38.1,34.4h-12a1.793,1.793,0,0,1-1.8-1.8V27a1.793,1.793,0,0,1,1.8-1.8h12A1.793,1.793,0,0,1,39.9,27v5.6a1.791,1.791,0,0,1-1.8,1.8Z" fill="none" stroke="#231f20" stroke-linecap="round" stroke-linejoin="round" stroke-miterlimit="10" stroke-width="1.5"/>
    <path id="Trazado_2913" data-name="Trazado 2913" d="M45.5,3.3h2m-1,.9V2.3" fill="none" stroke="#fbd108" stroke-linecap="round" stroke-linejoin="round" stroke-miterlimit="10" stroke-width="1"/>
  </g>
</svg>
