<svg xmlns="http://www.w3.org/2000/svg" width="278" height="141.328" viewBox="0 0 278 141.328">
  <g id="logo-color" transform="translate(139 70.664)">
    <g id="Grupo_1122" data-name="Grupo 1122" transform="translate(-139 -70.664)">
      <g id="Grupo_1117" data-name="Grupo 1117">
        <path id="Trazado_2286" data-name="Trazado 2286" d="M105.683,39.486a35.994,35.994,0,0,0-11.435-21.67c-9.265-8.743-19.96-11.6-32.239-7.2a3.635,3.635,0,0,1-2.141-.084A29.92,29.92,0,0,0,46.221,9.355a32.15,32.15,0,0,0-18.98,10.313C20.126,27.317,15.333,36,16.463,46.945a19.934,19.934,0,0,0,7.3,13.99,31.076,31.076,0,0,0,12.152,5.722c8.27,2.149,16.738,2.338,25.207,2.3,2.256,0,4.515.043,6.769-.009a82.721,82.721,0,0,0,17.482-2.062c5.174-1.238,10.1-3.087,14.067-6.8C105.469,54.444,106.736,47.226,105.683,39.486Z" transform="translate(4.785 2.517)" fill="#fff"/>
        <g id="Grupo_1116" data-name="Grupo 1116">
          <path id="Trazado_2287" data-name="Trazado 2287" d="M132.159,86.781a47.894,47.894,0,0,1-13.977,33.7c-10.9,11.3-24.444,17.479-39.8,19.844a77.143,77.143,0,0,1-44.788-5.973c-11.4-5.225-20.769-12.86-27.206-23.779a46.444,46.444,0,0,1-6.2-19.013C-.432,85.6.567,79.835,1.718,74.089a266.642,266.642,0,0,1,9.02-34.3C14.979,27.435,21.892,16.9,32.879,9.412A54.048,54.048,0,0,1,58.138.463a71.756,71.756,0,0,1,28.5,2.38c14.8,4.468,24.946,14.2,31.384,28.07,3.085,6.65,5.011,13.686,6.8,20.74,2.354,9.291,4.453,18.647,6.511,28.009A60.084,60.084,0,0,1,132.159,86.781ZM65.9,71.471c2.256,0,4.515.043,6.769-.009A82.806,82.806,0,0,0,90.156,69.4c5.174-1.238,10.1-3.087,14.067-6.8,6.032-5.643,7.3-12.86,6.245-20.6a35.99,35.99,0,0,0-11.435-21.67c-9.265-8.743-19.96-11.6-32.239-7.2a3.635,3.635,0,0,1-2.141-.084,29.92,29.92,0,0,0-13.646-1.175,32.15,32.15,0,0,0-18.98,10.313c-7.116,7.65-11.909,16.33-10.778,27.278a19.934,19.934,0,0,0,7.3,13.99A31.076,31.076,0,0,0,40.7,69.174C48.968,71.322,57.436,71.511,65.9,71.471ZM39.656,126.605l.216-.234a28.049,28.049,0,0,1-1.031-3.93c-.634-5.362-1.508-10.73-1.611-16.11-.089-4.714.793-9.441,1.131-14.17a57.3,57.3,0,0,0,.119-7.583c-.146-2.357-1.512-3.162-3.819-2.616a6.211,6.211,0,0,0-4.357,3.314,21.4,21.4,0,0,0-2.137,6.06c-1.713,12.2,1.435,23.1,9.173,32.676C38.069,124.913,38.883,125.742,39.656,126.605Zm52.071.367c.453-.385.605-.492.728-.624,8.714-9.381,12.614-20.471,11.5-33.213A26.23,26.23,0,0,0,101.943,86a6.434,6.434,0,0,0-4.531-3.933c-2.467-.639-3.816.171-3.952,2.7a55.853,55.853,0,0,0,.132,7.311c.343,4.4,1.023,8.789,1.2,13.2a71.349,71.349,0,0,1-.563,9.289C93.863,118.639,93.509,122.726,91.727,126.973ZM24.37,116.316c-2.781-7.207-3.469-14.338-3.561-21.537-.031-2.428.523-4.857.661-7.295a66.535,66.535,0,0,0,.113-7.583c-.129-2.259-1.335-3.049-3.53-2.684-3.581.592-5.35,3.068-6.333,6.265a24.759,24.759,0,0,0-.3,11.867C12.971,103.873,17.549,110.557,24.37,116.316ZM107.8,116c9.1-7.9,13.88-17.4,12.856-29.348a16.8,16.8,0,0,0-1.783-5.722,6.159,6.159,0,0,0-5.637-3.613c-1.793-.049-2.533.467-2.78,2.259a21.985,21.985,0,0,0-.184,4.487c.239,3.419.871,6.825.9,10.24A60.149,60.149,0,0,1,107.8,116Z" transform="translate(0 0)" fill="#a61927"/>
          <path id="Trazado_2288" data-name="Trazado 2288" d="M33.366,107.419c-.774-.863-1.587-1.692-2.316-2.592-7.738-9.575-10.886-20.48-9.173-32.676a21.409,21.409,0,0,1,2.137-6.06,6.215,6.215,0,0,1,4.357-3.314c2.306-.546,3.673.259,3.819,2.616a57.3,57.3,0,0,1-.119,7.583c-.338,4.729-1.22,9.456-1.131,14.17.1,5.38.977,10.748,1.611,16.11a28.05,28.05,0,0,0,1.031,3.93Z" transform="translate(6.29 18.383)" fill="#fff"/>
          <path id="Trazado_2289" data-name="Trazado 2289" d="M70.909,107.773c1.781-4.247,2.136-8.333,2.506-12.406a71.349,71.349,0,0,0,.563-9.289c-.181-4.407-.862-8.793-1.2-13.2a55.853,55.853,0,0,1-.132-7.311c.136-2.534,1.485-3.344,3.952-2.7A6.434,6.434,0,0,1,81.125,66.8a26.256,26.256,0,0,1,2.009,7.138c1.118,12.742-2.783,23.832-11.5,33.213C71.514,107.282,71.362,107.388,70.909,107.773Z" transform="translate(20.819 18.396)" fill="#fff"/>
          <path id="Trazado_2290" data-name="Trazado 2290" d="M21.908,98.189c-6.821-5.759-11.4-12.443-12.95-20.967a24.759,24.759,0,0,1,.3-11.867c.983-3.2,2.753-5.672,6.333-6.265,2.2-.363,3.4.426,3.53,2.684a66.535,66.535,0,0,1-.113,7.583c-.138,2.437-.692,4.867-.661,7.295C18.439,83.851,19.127,90.982,21.908,98.189Z" transform="translate(2.462 17.324)" fill="#fff"/>
          <path id="Trazado_2291" data-name="Trazado 2291" d="M83.337,97.83a60.149,60.149,0,0,0,3.375-21.7c-.032-3.415-.664-6.821-.9-10.239a21.994,21.994,0,0,1,.184-4.489c.247-1.792.987-2.308,2.78-2.259a6.159,6.159,0,0,1,5.637,3.613,16.8,16.8,0,0,1,1.783,5.722C97.217,80.434,92.432,89.933,83.337,97.83Z" transform="translate(24.468 17.365)" fill="#fff"/>
          <path id="Trazado_2292" data-name="Trazado 2292" d="M86.356,35.34A9.515,9.515,0,0,1,86.566,46.3c-4.468,6.908-16.073,8.959-22.6,3.958a15.236,15.236,0,0,1-2.388-2.383,33,33,0,0,0-8.534-7.518c-.265-.157-.5-.358-.938-.675a19.519,19.519,0,0,1,9.429,2.751,31.729,31.729,0,0,1,3.213,2.041c5.208,3.943,10.4,3.326,15.576-.013A12.623,12.623,0,0,0,86.356,35.34Z" transform="translate(15.299 10.376)" fill="#0c0c0c"/>
          <path id="Trazado_2293" data-name="Trazado 2293" d="M22.737,35.328c1.4,6.962,6.151,10.17,12.4,11.719a9.244,9.244,0,0,0,7.038-1.25c2.149-1.253,4.218-2.644,6.388-3.859A18.755,18.755,0,0,1,57.2,39.663a18.436,18.436,0,0,0-2.1,1.351c-2.331,2.032-5.11,3.767-6.838,6.234-5.692,8.125-18.7,6.834-24.2.878C20.64,44.425,19.983,39.65,22.737,35.328Z" transform="translate(6.173 10.372)" fill="#0c0c0c"/>
          <path id="Trazado_2294" data-name="Trazado 2294" d="M74.285,33.636a7.35,7.35,0,0,1-7.46,7.381,7.424,7.424,0,1,1,.094-14.848A7.33,7.33,0,0,1,74.285,33.636Z" transform="translate(17.444 7.683)" fill="#0c0c0c"/>
          <path id="Trazado_2295" data-name="Trazado 2295" d="M31.09,33.531a7.388,7.388,0,1,1,7.324,7.486A7.278,7.278,0,0,1,31.09,33.531Z" transform="translate(9.128 7.683)" fill="#0c0c0c"/>
          <path id="Trazado_2296" data-name="Trazado 2296" d="M53.327,27.527a21.208,21.208,0,0,0-11.851-5.05c-2.428-.241-4.932.264-7.4.441-.374.027-.743.133-1.116.158-2.528.159-3.814-.574-4.317-2.449a4.51,4.51,0,0,1,2.38-5.455c2.322-1.118,4.75-.884,7.19-.516A18.378,18.378,0,0,1,53.327,27.527Z" transform="translate(8.354 4.214)" fill="#0c0c0c"/>
          <path id="Trazado_2297" data-name="Trazado 2297" d="M53.966,27.193a15.57,15.57,0,0,1,4.5-7.355c4.657-4.287,10.147-6.211,16.456-5.137,2.687.457,3.971,2.468,3.754,5.13-.169,2.076-1.274,3.229-3.356,3.206a29.913,29.913,0,0,1-4.33-.5c-6.076-.96-11.406.858-16.3,4.321-.151.106-.294.226-.446.331C54.207,27.211,54.148,27.193,53.966,27.193Z" transform="translate(15.844 4.23)" fill="#0c0c0c"/>
        </g>
      </g>
      <g id="Grupo_1121" data-name="Grupo 1121" transform="translate(144.925 4.911)">
        <g id="Grupo_1119" data-name="Grupo 1119">
          <g id="Grupo_1118" data-name="Grupo 1118" transform="translate(0 0.216)">
            <path id="Trazado_2298" data-name="Trazado 2298" d="M124.145,6.322a.583.583,0,0,0,.481,0c2.889-.481,5.848-.413,8.74-.894.755-.069,1.512-.276,2.27-.276a4.083,4.083,0,0,1,3.578,2.409,18.986,18.986,0,0,1-4.749.755c-1.582-.069-3.1-.137-4.678-.069-1.446.069-2.891.483-4.336.551-.413,0-.62.276-.757.688-.481,2-.069,3.922.207,5.917.069.688,0,1.378,0,2.133a64.527,64.527,0,0,0,0,8.946c2.27-.344,4.472.274,6.675-.07,1.1-.206,1.72.757,2.614,1.378a2.788,2.788,0,0,1-1.515.824,7.058,7.058,0,0,0-1.995.483,16.888,16.888,0,0,1-4.956.688c-.894.069-.894.069-.824.962.069,1.652.069,3.3,0,5.024a48.332,48.332,0,0,0-.207,5.5,6.166,6.166,0,0,1-.206,1.927,14.045,14.045,0,0,0-.344,5.09c.137.689.413.9,1.031.827a5.49,5.49,0,0,1,1.515-.069.468.468,0,0,1,.343.481c-.755.687-2.132-.069-2.957.964a1.581,1.581,0,0,0,1.375-.069c2.409-.62,4.817-.964,7.225-1.652,1.239-.345,2.547-.137,3.785-.414a1.231,1.231,0,0,1,.964.277c.413.413.825.757,1.238,1.1-.413.552-1.169.276-1.652.621-.137.413.277.618.414.962.344.481.206.894-.414.894a9.623,9.623,0,0,0-3.1.689,13,13,0,0,1-2.27.343,31.6,31.6,0,0,0-6.262.413c-.551.138-1.032.138-1.169.964-.069.551-.483.62-.964.207-.55-.413-1.032-.207-1.583-.137a44.85,44.85,0,0,1-8.05.55c-.413,0-.757-.344-1.171-.481a.655.655,0,0,1-.413-.689c0-.413.207-.55.552-.618a19.7,19.7,0,0,0,3.438-1.1c0-1.582-.069-3.165,0-4.817.414-5.092.138-9.908.552-15,.343-4.954.481-9.976.618-14.932.069-2.476-.137-4.953-.137-7.362,0-.62-.276-.894-.827-.894-.894,0-.757-.481-1.651-.62a1.109,1.109,0,0,1-.964-.688,20.687,20.687,0,0,1,3.3-.757,6.762,6.762,0,0,0,.138-1.1c0-.687.069-1.237.962-1.1.069,0,.207,0,.207-.069,1.238-1.171,2.409-.483,3.647-.069A4.087,4.087,0,0,1,124.145,6.322Zm-7.295,45.9c1.1-.137,1.1-.137.962-.894-.069-.481.07-1.652-.343-2.133C116.713,49.879,116.989,51.392,116.85,52.217Z" transform="translate(-112.033 -3.845)" fill="#0c0c0c"/>
            <path id="Trazado_2299" data-name="Trazado 2299" d="M145.236,4.788c2.684.414,5.367.964,7.981,1.445.758.138,1.583.138,2.34.344a9.125,9.125,0,0,1,6.331,5.3,18.4,18.4,0,0,1,.825,2.753c.07.344.138.62.62.62s.481.413.618.757a19.361,19.361,0,0,1,.827,8.4,18.651,18.651,0,0,0-.276,4.4,2.012,2.012,0,0,1-.138.618,39.262,39.262,0,0,1-4.059,10.666c-.206.276-.413.481-.413.757-.276,2.2-2.27,3.165-3.3,4.749a.524.524,0,0,1-.62.206c-.481-.137,0-.618-.344-.894a19.127,19.127,0,0,1-1.582,2.27,39.338,39.338,0,0,1-3.165,3.578,22.031,22.031,0,0,1-3.578,2.684c-1.1.687-1.169.964-1.1,2.2a10.639,10.639,0,0,0-3.578.274,1.745,1.745,0,0,1-2.409-.618c-.413.137-.482.481-.688.687-.55.345-.894.965-1.789.689a1.628,1.628,0,0,1-1.307-1.789c.137-2.2-.137-4.335.069-6.538a34.973,34.973,0,0,0-.069-7.086,89.093,89.093,0,0,1-.483-9.633c.069-2-.069-3.992-.069-5.918a64.477,64.477,0,0,1,.274-8.945c.208-1.445-.206-2.89-.069-4.336a2.4,2.4,0,0,1,.414-1.512c.481-.483.276-1.308.276-2a10.047,10.047,0,0,0,0-1.445,11.156,11.156,0,0,1-1.515,0c-.757-.069-.757-.137-.344-.964.62-1.238,1.72-1.238,2.821-1.169a4.83,4.83,0,0,0,1.995-.069c.138-.069.138-.206.138-.345-.276-1.031-.207-1.1.827-.824C142.209,4.444,143.721,4.513,145.236,4.788Zm-2.27,3.991c.755,1.308.343,2.823.9,4.13-.069,3.647.069,7.223.274,10.87.138,2.891,0,5.848.344,8.74.276,2.339.069,4.817.757,7.156a.254.254,0,0,1,.069.207c-.206,1.995.276,3.922.344,5.917a3.355,3.355,0,0,0,.276,1.583,43.989,43.989,0,0,0,2.958-4.335c-.55-.137-.825.413-1.376.276a1.185,1.185,0,0,1,.414-.552,10.75,10.75,0,0,0,2.27-2.063A70.153,70.153,0,0,0,156.315,27.7a7.343,7.343,0,0,0,.413-2.133c.069-1.72.206-3.37.206-5.022a7.424,7.424,0,0,0-.069-2.479,20.328,20.328,0,0,0-3.784-7.5,2.965,2.965,0,0,0-.688-.618c-1.445-1.032-2.96-2-4.886-1.858-.137,0-.206-.07-.344-.138a28.769,28.769,0,0,0-3.441-.274C142.828,7.748,142.553,8.092,142.966,8.779Zm12.523,2.41c.069.137.207.274.344.481.206-.688.069-.965-.481-.965C155.212,10.914,155.352,11.051,155.489,11.189Zm8.394,10.87a10.962,10.962,0,0,0-.618-4.953C162.99,18.826,163.815,20.41,163.883,22.059Z" transform="translate(-105.396 -3.963)" fill="#0c0c0c"/>
            <path id="Trazado_2300" data-name="Trazado 2300" d="M169.508,6.611a7.425,7.425,0,0,1,1.858,4.542c.137,3.027.137,6.744.413,9.976.206,2.339.206,4.68.483,7.019a15.045,15.045,0,0,0,.413,2.546,15.207,15.207,0,0,1,0,5.848c-.413,2.753-.344,5.506-.481,8.19a8.274,8.274,0,0,1-.551,3.647,1.878,1.878,0,0,0,.069,1.375c.069.414.343.827-.207,1.171-.206.137-.069.413.069.55.344.413.138.758-.069,1.171-.55.894-.55.894-1.376.344-.55-.344-1.169-.413-1.444,0-1.515,2.339-2.065.206-3.785.411a.873.873,0,0,1-.9-.687,7.181,7.181,0,0,1-.481-2.409c0-1.858.069-3.715.069-5.5,0-2-.413-3.854-.55-5.78-.413-4.68-.137-9.289-.413-13.9-.138-2.407.069-4.885,0-7.223-.138-2.823.069-6.4.137-9.221.07-1.032.07-1.032,1.169-1.032a1.325,1.325,0,0,1,.481-.07c.208-.481-.137-.894,0-1.376.208-.344.689-.137.964-.481.138-.137.413-.274.551-.206C167.168,5.716,168.545,5.579,169.508,6.611Zm.55,22.157V30.35c0,.276.414,1.171.483,1.515l.137,1.514c.069-.276.069-.069.276-.827a6.323,6.323,0,0,0,.069-1.926c0-.413-.206-1.375-.276-1.858l-.343-2.89A14.335,14.335,0,0,0,170.057,28.768Z" transform="translate(-97.193 -3.514)" fill="#0c0c0c"/>
            <path id="Trazado_2301" data-name="Trazado 2301" d="M200.733,5.236a.664.664,0,0,1-.276.964c-.55.413-.825,1.1-1.376,1.514-.413.276.069.344.069.62a3.226,3.226,0,0,1-1.789.344c-1.168-.07-2.407-.138-3.578-.138a11.677,11.677,0,0,0-2.683.138,1.348,1.348,0,0,0-1.376,1.032,5.2,5.2,0,0,0-1.789-.413c.413.894.137,1.995,1.308,2.544.276.138.276.621.276.965a24.473,24.473,0,0,0,.343,4.472A61.839,61.839,0,0,1,190,23.471c.069,3.1-.138,6.125,0,9.221.069,1.239.206,2.407.343,3.578a43.278,43.278,0,0,1,.208,5.987c0,.757-.137,1.582-.069,2.409.069,1.788-.277,3.577-.277,5.434-.069,1.239-.825,2.273-1.031,3.51,0,.138,0,.207-.069.276-.62.277-1.308.206-1.927.551-.206.137-.481,0-.757-.137-.413-.277-.964-.551-1.445-.827a1.2,1.2,0,0,0-1.169.069c-.964.55-2.34-.481-2.272-1.652.07-1.72-.137-3.51-.206-5.227a17.188,17.188,0,0,1,.344-4.612,9.305,9.305,0,0,0-.069-4.128,6.367,6.367,0,0,1-.207-2.27,27.172,27.172,0,0,0-.137-3.372c0-2.477-.069-4.954-.069-7.432a38.628,38.628,0,0,1,.343-7.981,16.77,16.77,0,0,0,.07-3.234,8.028,8.028,0,0,1,.274-2.546c.207-.413,0-.9-.069-1.376a.962.962,0,0,0-.757-.62,19.422,19.422,0,0,0-3.992,0c-1.375.207-2.751.069-4.128.138a1.323,1.323,0,0,1-1.169-.413,1.088,1.088,0,0,1,.62-.414c.413-.138.618-.276.481-.825-.069-.413.206-.62.688-.757a18.141,18.141,0,0,1,3.854-.345c2.477-.137,4.816-.687,7.155-1.031,2.96-.344,5.851-1.032,8.877-.827a38.758,38.758,0,0,0,5.643-.069h.758C200.32,4.548,200.527,4.825,200.733,5.236ZM182.981,9.365c-.277.413-.277,1.926.206,1.995l.413.07c-.206-.551.069-1.72-.413-2.133C183.186,9.228,183.049,9.3,182.981,9.365Z" transform="translate(-94.496 -3.791)" fill="#0c0c0c"/>
          </g>
          <path id="Trazado_2302" data-name="Trazado 2302" d="M207.1,4.219c.343.55-.483.55-.621,1.1a9.434,9.434,0,0,1,4.817.207c2.409,1.031,4.4,2.407,5.367,5.022a11.641,11.641,0,0,0,1.169,2,16.633,16.633,0,0,1,2.41,7.776c.069,2.409.206,4.816.137,7.225-.069,2.546-.069,5.16-.277,7.774a21.608,21.608,0,0,1-1.031,5.093c-.618,2.2-1.583,4.266-2.065,6.538a10.8,10.8,0,0,1-2.407,5.159,6.888,6.888,0,0,1-1.446,1.034,4.873,4.873,0,0,1-3.3,1.445,1.677,1.677,0,0,0-1.308.413c-.55.55-1.031.344-1.512.069-.414-.276-.827-.55-.621-1.239.069-.343-.206-.618-.481-1.031a1.514,1.514,0,0,1-1.445.618,11.007,11.007,0,0,0-1.515.07,3.226,3.226,0,0,1-3.164-1.239,5.908,5.908,0,0,1-.964-1.238c-.55-.827-.894-1.858-2.27-1.926.481-.484.687-.758.206-1.171-1.995-1.583-2.407-3.854-2.614-6.261-.274-3.3-.482-6.675-.688-9.977a21.31,21.31,0,0,1,0-2.96l.345-7.088a32.249,32.249,0,0,1,2.339-10.183A12.417,12.417,0,0,1,199.6,6.695a21.139,21.139,0,0,1,2.476-1.444c.688-.483,1.308-1.1,2.2-.827.207.069.481-.137.757-.274a7,7,0,0,1,.69-.276C206.274,3.738,206.824,3.738,207.1,4.219Zm-2.616,4.541a7.9,7.9,0,0,0-2.065,3.165,11.456,11.456,0,0,0-.757,4.817,9.566,9.566,0,0,1,.276,2.409c-.137,2.27-.069,4.541-.206,6.812a74.5,74.5,0,0,0,.069,7.844c.137,2.614.343,5.229.55,7.774.137,1.378.137,2.753,1.032,3.922.481.688,1.169,1.927,1.859,2.753-1.308-.069-1.72-1.583-2.616-1.927a15.208,15.208,0,0,1,.688,1.515,4.67,4.67,0,0,0,.62.964c.206.276.411.757.824.687.827-.069,1.171.483,1.515,1.034.206.344.481.757.964.687a3.074,3.074,0,0,0,2.614-2.407c.137-1.789.618-3.578.894-5.3a66.1,66.1,0,0,0,1.032-7.295c.138-2.753.276-5.5.551-8.256.274-3.648.964-7.363.414-11.08a27.012,27.012,0,0,0-1.652-6.949,2.729,2.729,0,0,0-2.065-1.789,7.474,7.474,0,0,0-2.134-.207A3.327,3.327,0,0,0,204.485,8.759Z" transform="translate(-88.137 -3.796)" fill="#0c0c0c"/>
        </g>
        <g id="Grupo_1120" data-name="Grupo 1120" transform="translate(3.066 61.262)">
          <path id="Trazado_2303" data-name="Trazado 2303" d="M124.2,52.8c.366.093.276.64.276.916a23.08,23.08,0,0,1-.185,3.569,88.319,88.319,0,0,0,0,10.979,19.045,19.045,0,0,0,.093,4.575c.092.64,0,1.281.64,1.739,1.189-3.477-.276-6.954.273-10.522.64-3.385-.091-6.953.458-10.706,1.281,1.006,1.008,2.2.915,3.2,0,2.379.093,4.758.093,7.135-.093,4.209.091,8.326.091,12.534.092,4.118-.184,8.235.64,12.261a79.468,79.468,0,0,1,1.556,9.332,50.207,50.207,0,0,1-.642,8.326,12.357,12.357,0,0,0-.182,1.832,6.6,6.6,0,0,1-.732,2.927,3.023,3.023,0,0,0-.091,2.927.383.383,0,0,0,.548-.276c.457-.823.457-.913,1.19-.182a1.006,1.006,0,0,0,.823.274,17.581,17.581,0,0,0,3.751-.182c1.739-.276,3.476-.367,5.306-.55a4.742,4.742,0,0,1,2.744.458,2.943,2.943,0,0,0,1.556.182,2.407,2.407,0,0,1,1.371.182c.458.276.916.643.276,1.1-.458.458-.64.733-.276,1.283a.435.435,0,0,1-.182.731c-1.281.55-2.287,1.373-3.843,1.19-2.194-.185-4.39.548-6.678.365a68.7,68.7,0,0,0-7.5.366c-2.379.273-5.489.182-7.868.64-1.647.276-2.837-.55-3.661-2.379.916-.731,2.563.092,3.021-1.463-.091-.458-.548-.642-.824-1.006a5.8,5.8,0,0,1-1.372-2.927c-.276-5.491,0-10.98-.366-16.378-.274-4.574-.182-9.15-.365-13.724-.093-4.85-.367-9.606-.458-14.455-.092-3.843.182-7.778-.182-11.62-.093-.916.455-1.189,1.1-1.189,1.466.182,2.472-1.008,3.843-1.1.274,0,.458-.274.64-.55.458-1.189,1.373-1.371,2.471-1.463C123.012,51.7,123.2,52.617,124.2,52.8Zm-4.94,62.217c-.092.182,0,.273.182.273.366.092.458-.091.548-.458-.091-.182,0-.455-.366-.455S119.352,114.741,119.262,115.016Z" transform="translate(-114.403 -51.154)" fill="#0c0c0c"/>
          <path id="Trazado_2304" data-name="Trazado 2304" d="M150.307,54.956A9.887,9.887,0,0,1,152.777,61c.182,4.024.182,8.966.55,13.266.273,3.11.273,6.222.64,9.332a20.057,20.057,0,0,0,.548,3.385,20.238,20.238,0,0,1,0,7.776c-.548,3.66-.458,7.32-.64,10.888-.091,1.648.092,3.293-.731,4.85a2.5,2.5,0,0,0,.091,1.829c.092.548.457,1.1-.276,1.556-.273.182-.091.548.092.731.458.55.184,1.008-.092,1.556-.731,1.19-.731,1.19-1.829.458-.732-.458-1.556-.548-1.921,0-2.014,3.11-2.745.274-5.033.547a1.159,1.159,0,0,1-1.189-.913,9.543,9.543,0,0,1-.64-3.2c0-2.469.092-4.939.092-7.318,0-2.654-.55-5.124-.732-7.685-.548-6.222-.182-12.351-.548-18.482-.182-3.2.091-6.5,0-9.606-.182-3.753.091-8.509.182-12.261.093-1.371.093-1.371,1.555-1.371a1.757,1.757,0,0,1,.64-.093c.276-.64-.182-1.189,0-1.829.276-.458.916-.182,1.281-.64.185-.182.55-.365.733-.274C147.195,53.768,149.025,53.585,150.307,54.956Zm.731,29.462v2.1c0,.367.55,1.556.64,2.014l.182,2.012a11.464,11.464,0,0,0,.367-1.1,8.415,8.415,0,0,0,.091-2.56c0-.55-.273-1.83-.365-2.471l-.458-3.843A19.093,19.093,0,0,0,151.038,84.418Z" transform="translate(-106.567 -50.474)" fill="#0c0c0c"/>
          <path id="Trazado_2305" data-name="Trazado 2305" d="M171.29,53.551c.274,1.281,1.372,2.013,1.83,3.293,1.189,3.568,1.371,7.319,2.745,10.888,2.012,5.489,3.477,11.253,5.489,16.743.731,2.1,1.189,4.3,1.829,6.4,1.008,3.569,2.106,7.138,3.111,10.706.093.182.184.458.458.458a45.539,45.539,0,0,0-.458-13.634c-.457.64-.092,1.281-.182,1.924a14.954,14.954,0,0,1-.092,2.012c-.64-.182-.548-.64-.548-1.006,0-2.288-.092-4.666-.274-7.045,0-1.372.274-2.837.274-4.3,0-1.829-.182-3.568-.274-5.306a36.569,36.569,0,0,1-.184-5.49c.184-4.392.276-8.69.091-13.083a3.451,3.451,0,0,1,.916-1.921c.182-.276.64-.276.916-.276.823.092,2.561,1.556,2.652,2.379.092,2.745.825,5.491.64,8.327s0,5.671-.091,8.6c0,2.2.276,4.392.091,6.68-.182,4.026.092,8.049,0,12.169,0,2.469.64,5.031.825,7.592.182,3.2.913,6.313,1.1,9.516,0,.915.276,2.1-.273,2.469-1.19.823-.458,1.648-.458,2.471,0,.458.091.824.091,1.281a2.631,2.631,0,0,1-1.645,2.653.68.68,0,0,1-1.006-.366c-.55-.731-1.19-.64-1.921-.731-1.739-.274-3.477.273-5.033-.64-1.1.548-1.92-.458-2.927-.55-1.189-.091-1.647-.823-1.921-1.829-.64-2.288-1.374-4.484-1.922-6.772-.823-3.568-2.1-6.86-2.927-10.43-1.005-4.848-2.653-9.514-4.117-14.272a97.429,97.429,0,0,1-3.019-11.253c-.365-2.287-1.006-4.574-1.463-6.863-.64.182-.458.55-.458.732-.182,7.593-.366,15.1-.366,22.69,0,5.4.548,10.8.64,16.286.093,3.019.64,6.038.824,9.056a50.148,50.148,0,0,1,.092,5.306c-1.281-.547-2.012-1.554-3.295-1.829-.455-.091-.731-.731-.64-1.281a5.047,5.047,0,0,0-.64-2.287,3.653,3.653,0,0,1-.458-2.012c-.365-4.3-.365-8.6-.548-12.992a18.064,18.064,0,0,0-.365-3.753,3.667,3.667,0,0,1,0-1.005c.365-5.216-.276-10.522-.185-15.737.093-5.949.093-11.8.093-17.751,0-1.19-.093-2.471-.184-3.75,0-.732,0-1.1,1.006-1.372,1.281-.276,2.471-.642,3.751-.093a2.03,2.03,0,0,0,1.464-.273c2.1-1.008,4.3-.732,6.4-1.008C170.924,53.275,171.29,53.367,171.29,53.551Zm16.469,60.843c-.366-.733-.458-1.556-1.556-1.466C186.112,114.576,186.112,114.576,187.759,114.393Z" transform="translate(-101.569 -50.531)" fill="#0c0c0c"/>
          <path id="Trazado_2306" data-name="Trazado 2306" d="M203.071,54.573a.771.771,0,0,0,.64,0c3.842-.64,7.777-.548,11.62-1.189,1.005-.092,2.012-.367,3.018-.367a5.427,5.427,0,0,1,4.758,3.2,25.244,25.244,0,0,1-6.313,1.005c-2.1-.092-4.117-.182-6.221-.092-1.922.092-3.843.64-5.764.731-.548,0-.824.367-1.006.916-.64,2.654-.092,5.216.276,7.868.091.916,0,1.832,0,2.837a85.484,85.484,0,0,0,0,11.895c3.018-.457,5.947.365,8.874-.092,1.463-.274,2.287,1.006,3.477,1.83a3.714,3.714,0,0,1-2.014,1.1,9.409,9.409,0,0,0-2.653.642,22.488,22.488,0,0,1-6.588.915c-1.189.091-1.189.091-1.1,1.281.091,2.2.091,4.392,0,6.679a64.2,64.2,0,0,0-.276,7.319,8.207,8.207,0,0,1-.274,2.563,18.679,18.679,0,0,0-.458,6.769c.182.916.55,1.19,1.372,1.1a7.29,7.29,0,0,1,2.013-.091.622.622,0,0,1,.457.639c-1.005.915-2.834-.091-3.933,1.281a2.1,2.1,0,0,0,1.829-.091c3.2-.823,6.4-1.281,9.606-2.2,1.647-.458,3.385-.182,5.032-.548a1.633,1.633,0,0,1,1.281.366c.55.55,1.1,1.006,1.648,1.463-.55.733-1.556.366-2.2.824-.182.55.366.823.548,1.281.458.64.274,1.19-.548,1.19-1.463-.092-2.745.548-4.117.916a17.245,17.245,0,0,1-3.019.455,41.923,41.923,0,0,0-8.324.55c-.733.184-1.374.184-1.556,1.279-.092.733-.64.825-1.281.276-.732-.548-1.374-.276-2.106-.182a59.592,59.592,0,0,1-10.7.732c-.55,0-1.008-.458-1.556-.64a.871.871,0,0,1-.548-.916c0-.548.274-.731.732-.823a26.243,26.243,0,0,0,4.574-1.464c0-2.1-.092-4.208,0-6.4.548-6.769.184-13.174.732-19.946.457-6.587.64-13.265.823-19.853.092-3.293-.182-6.587-.182-9.789,0-.825-.366-1.19-1.1-1.19-1.19,0-1.008-.64-2.2-.824a1.472,1.472,0,0,1-1.281-.913,27.582,27.582,0,0,1,4.39-1.008,8.939,8.939,0,0,0,.184-1.464c0-.915.092-1.645,1.281-1.463.092,0,.274,0,.274-.092,1.647-1.556,3.2-.64,4.85-.091C201.241,53.2,202.34,53.475,203.071,54.573Zm-9.7,61.025c1.464-.182,1.464-.182,1.279-1.19-.091-.64.093-2.2-.455-2.836C193.19,112.488,193.556,114.5,193.373,115.6Z" transform="translate(-93.098 -50.914)" fill="#0c0c0c"/>
        </g>
      </g>
    </g>
  </g>
</svg>
